<?xml version="1.0" encoding="UTF-8"?><svg id="Layer_2" xmlns="http://www.w3.org/2000/svg" viewBox="0 0 189.55233 179.87006"><defs><style>.cls-1{stroke-width:3.62122px;}.cls-1,.cls-2,.cls-3{fill:none;stroke:#240a3b;stroke-linecap:round;stroke-miterlimit:10;}.cls-4{stroke-width:2.25671px;}.cls-4,.cls-5,.cls-6{fill:#fed916;}.cls-4,.cls-6{stroke:#fed916;}.cls-7{fill:#7d4698;}.cls-8,.cls-9{fill:#dcf4ef;}.cls-10{fill:#60d2c0;}.cls-9{fill-rule:evenodd;}.cls-6{stroke-width:1.55543px;}.cls-2{stroke-width:3.7868px;}.cls-3{stroke-width:3.60201px;}</style></defs><g id="Layer_1-2"><g><path class="cls-5" d="M51.45557,94.96937c61.10792,.89183,61.10829-95.09539-.00421-94.1956-61.10368-.89218-61.10409,95.09504,.00421,94.1956Z"/><path class="cls-5" d="M90.18816,72.49471c-.61593,.93107-.0716,.57297-.0716,.85945-.67324,1.16027-.50136,.40108-.85946,.71621-.25496,.65748-.5873,1.28202-.98837,1.86215,0,0-.14323,.10027-.10026,0-.40108,.81648-1.63296,2.04836-2.10566,3.00808h-.14325c.21488,0,.34379,0,.38676,.12891-.3581,.3581-.54433,.78783-.80215,.80216,.22919-.21486,.1862-.28649,.25782-.42973l-.32945,.42973c-.51567,.17188,.45836-.57297,.31513-.70188-.60306,.81504-1.25909,1.58997-1.96241,2.32051-.2865,0,1.23188-1.43242,.34377-.78782l.91675-.80216c-.93106,.40108,.54433-.51567-.3581-.18621-1.17457,1.07431-1.11728,1.43242-2.36348,2.40646-.18622,.32945,.22919,0,0,.40108-1.6043,1.66161-1.76187,.68757-2.86484,2.01972-.1146,.28791-.28934,.55004-.51139,.76634-.22202,.21773-.48702,.38532-.7778,.49419l.17191-.44405c-1.28919,.84512-.50136,.81648-1.94809,1.58997,.1862-.24351,.95972-.75918,.74486-.65891-.98837,.4154-.53001,.55864-1.20325,1.01702l-.25782-.11459c-.71621,.4154-1.43242,.87378-2.20594,1.43242-.74056,.54432-1.52695,1.02417-2.34917,1.43242,0-.10027,.31513-.30081-.1146-.20054-1.03132,.51567-2.16294,1.00269-3.29455,1.43242-1.13162,.42972-2.34917,.64458-3.42348,.91675l-.75918,.45837c-.18622,0-.37244,0-.17191-.08595-.87378,.10027,0,.14325-.40108,.30082-.40108,.15756-.67324,0-.37242-.10027-.73055,.24351-1.77621,.57296-2.86484,.84512-.97692,.25927-1.98391,.37959-2.99375,.3581l.3008-.10027c-1.26054,0-1.43242,.58729-2.5497,.51567h-3.93915c-.65748,.02435-1.31496-.02005-1.96242-.12892-.5701-.06302-1.13448-.16329-1.69025-.30081-.42972,.27216-2.67862-.37242-2.86484,0-1.03277-.41253-2.0899-.76204-3.16564-1.04566-.57297-.10027-.91675,0-1.61863-.10027v-.21486l-1.01702-.07163-.4154-.40108-.67324-.12891c.25784,.08594,.53,.25784,.4727,.30081-.55578-.12319-1.09866-.30081-1.61864-.53-.29507-.12175-.56007-.30796-.7735-.54432l-2.39215-.77351c.08595,0,.48703,0,.81648,.14324-1.31782-.30081-.12891-.30081-1.34647-.58729,.12891,.11459-.12892,.10027-.17189,.12891-.85802-.53143-1.74755-1.00986-2.6643-1.43242h.24351c-1.77476-.91818-3.4908-1.94236-5.14238-3.06538,.58729,.4727,.30081,.60161-.22919,.27216v-.31513c-.41539-.10027,.48703,.4154-.30081,.1146-.78782-.30082-.25784-.54433,.14324-.31513l-.78782-.53c0-.10027,.18621,0,.28648,0-.38675-.12891-1.11728-1.21755-1.70457-1.43242v-.08594c-.66608-.50279-1.30207-1.04281-1.90512-1.61864l-1.58999-1.7189c-.15757,.1146-.60161-.37243-1.08864-.61594-.75918-1.00269-1.53269-2.17727-2.50673-3.30888-.73054-.77351-.32945-.14324-.70188-.45837,.10027-.17189-.77351-1.43242-.21486-.83081l-1.24621-1.7189-.63026-.83081-.77351-1.20324c0,.24352,.15757,.51567,0,.4154-.22948-.34378-.40136-.87378-.30109-.85945v.08594c-.78612-1.15739-1.39003-2.42795-1.79052-3.76726-.39335-1.20179-.87206-2.37495-1.43242-3.50942v.10027l-.67324-1.93377c-.27216-.93106,.31513,.51567,.20054-.20054-.22633-.46625-.42715-.94439-.60161-1.43242-.1146-.45837-.20054-.88809-.27216-1.3035-.13379-.85831-.33003-1.70573-.5873-2.53539,.05645-1.10596-.00114-2.2148-.17188-3.30888-.08595-.67324-.20054-1.43242-.25784-1.99106-.00702-.58414,.0265-1.16799,.10027-1.74755l-.12892,.1146c-.12891-.50134,0-.61594,.10027-.98837-.10027,0-.11459,.55864-.18621,.24351-.10772-2.2224,.01719-4.44995,.37243-6.64642,.17188-1.10296,.48702-2.17727,.73053-3.26591l.37243-1.61863c.17189-.53,.3581-1.04567,.53-1.57566,.48702-1.51837-.37243-1.06,.50134-2.86484v.63026c.4727-1.58612,1.0567-3.13699,1.74755-4.64103,.77351-1.43242,1.53269-2.86484,2.22054-4.29726-.02292,.17504-.07592,.34478-.15757,.50134,.55292-.63227,.97691-1.36724,1.2462-2.16296,.28649-.40108,.17189,0,.40109-.24351,.45837-.48702,.73053-1.54701,1.10296-1.7189,0,0,0,.18621-.14324,.28648,.21486-.38675,1.3035-1.57566,.88809-1.43242,.83081-.85945,1.34648-1.86214,2.09134-2.47808,.27215-.5873,1.43242-1.43242,1.43242-1.73323,.18621,.28648,1.61863-1.34648,2.14863-1.89079-.12892,.22918,.57296-.3581,.42972,0,.65891-.55865,1.21755-1.1173,1.0027-1.14594,1.43242-.77351,2.37781-2.16296,3.3805-2.29187l1.43242-1.17459,1.54701-.97405c.98408-.65447,2.00825-1.24763,3.06538-1.7762,0,.18622-.57296,.40108-1.10296,.71621s-1.04567,.61594-.91675,.74486l1.2462-.84513,1.16027-.64459c.81934-.45393,1.66589-.85573,2.53538-1.20323,.54433-.18622-.22918,.25784-.38675,.38675,.95256-.45952,1.94523-.83338,2.96511-1.11728,.98836-.28648,1.90512-.68757,2.86484-.9454,0,0-.18622,.11459-.38676,.17189,.37243-.08595,.8881-.12892,.81648-.27216l-.3581,.1146c-.65891-.07162,1.43242-.74486,1.43242-.87378-.54432,.54432,1.91945-.31513,1.0027,.42972,.24351,0,.54432-.21486,.4727-.30081,.37242,0,.50134,0,.14324,.17189,.6675-.26428,1.36509-.44706,2.077-.54432,0,0-.24351,.12892-.3581,.22919,.72767-.28061,1.49687-.44033,2.27755-.4727,0,0,.07161,.08595-.24352,.1146,1.66734-.34178,3.36906-.49075,5.07077-.44405-.5873,.31513,.68755,.08595,.7735,.3581,.3581-.02149,.71621-.02149,1.07431,0l-.42973-.15757c.86088-.00358,1.72178,.03939,2.57836,.12892h-.70189l1.76189,.10027-.98837-.18621c.95972,0,0-.34378,1.17457-.15757,.4899,.05629,.96975,.17175,1.43242,.34378,.5515-.00745,1.10155,.06504,1.63296,.21486,.15757,.11459-.20054,.25784-.08594,.32946,.48704-.1146,2.17728,.32946,2.79321,.27216-.20054,0-.24351,.12892-.20054,.17189h.41541c.41539,.17189,.45836,.22919,.37242,.31513,1.24622,.40108-.31513-.44405,1.14594,.14325h-.32945c1.4668,.36555,2.9035,.84441,4.29726,1.43242,.3008,.4154-1.18891-.4154-.81649,0,.95972,.37243,1.97674,.70188,2.99375,1.04567,.98837,.36641,1.94667,.81189,2.86484,1.33215l-.31511-.20054c.41539-.20054,1.23188,.84513,2.1916,1.20323-.21488-.1146-.38676,0-.30082,0,1.10297,.81648,2.40647,1.43242,4.18266,2.5497l-.27216-.08594c.5873,.57297,1.63296,1.43242,2.27756,1.96242,.27214,.08594,.64458,.4154,.50133,.1146,.45838,.51566,.90243,1.00269,1.34648,1.43242,.44405,.42972,.93106,.87377,1.43242,1.27485,.98551,.73626,1.81059,1.66748,2.42079,2.73591-.18622-.22918-.50136-.4727-.3581-.30081l1.43242,1.50404c0-.22919-.10028-.27216-.27216-.67324,.37817,.25425,.71479,.56322,1.00269,.91675-.68755-.63027-.1862,.15757,0,.54432,0-.08594,.1146,0,.14325,0,.37242,1.05999,.37242,0,1.04566,1.27485h-.1146c.36958,.40337,.71335,.82909,1.03134,1.27485,0,.31513-.40108-.42972-.55864-.37242,.4727,.67323,1.26054,1.13161,1.43242,1.90511-.21772-.33962-.45694-.66492-.71621-.97405,.14611,.49605,.34379,.97606,.5873,1.43242l.5873,1.27486-.12893-.34379c.90243,.67324,1.18891,1.74755,1.99106,2.86484-.83078-1.11728-.25782-.12891-.48702-.12891,.08594,.34378,.22919,.87378,.1146,.75918,.42973,.53,.31513,1.04566,.91675,1.79052,0,0,.27216,.64458,0,.57297,.40108,.75918,0-.22919,.14325-.18622,.75918,1.1173,.71621,3.00809,1.63296,4.69834,.51567,1.53269,.7735,1.79052,1.23188,3.25159,0,.53-.34379-.3581-.34379-.3581,.08166,.74114,.22633,1.47424,.42973,2.1916-.07163-.15757-.1146,0-.15757,.27216,.08594,.60161,.3008,.37243,.28648,1.20323-.14898-.17361-.26499-.37242-.34379-.58729,.14325,.73053,.3581,1.43242,.50136,2.17727-.10026,.21486-.22919-.42972-.34379-.68755,.10745,.82507,.28506,1.63969,.53001,2.43511v-.54432c0,.30081-.15757,.15757-.21488,0-.22917-.71621,0-1.06,0-1.10297l.1146,.53c.34379-.5873-.31513-2.16296-.41539-3.2516l.34377,.4154-.37242-1.08863c0-.24352,.18622-.42973,.30082,.10027,0-.81648-.22919-.67324-.20054-1.43242,0-.08595,0,0,0,0l-.25785-.74486c.10028,.14324,.18622-.15757,.24351,.31513-.12891-1.43242-.70187-2.14863-.5873-2.70727v.1146c-.58728-1.83349-.24351-.14324-.91675-1.43242l.22919-1.08864-.27216-.1146c0-.18621-.15757-.57297,0-.52999-.3581-.65892,0,.15757-.31513-.21486-.09309-.56122-.25066-1.10926-.47268-1.63296-.22919-.51567-.4011-.9454-.2865-1.11728-.28648-.24352,.24351,.88809-.25782,0,.22919-.4154-.52999-1.06-.73053-1.91945,.28648,.15757,.52999,.95972,.32945,.08594-.48702-.3581-.61595-1.58999-1.06-2.20592-.24351,.10027-.87378-1.34648-1.56133-2.39215-.52426-1.16068-1.14308-2.27683-1.84783-3.33753-.3581,0-.93106-1.07431-1.54699-1.69025,.14323,0,.3008,0,.64458,.34378-.16043-.21916-.33234-.42959-.51567-.63027-.28506-.18063-.54002-.40265-.75918-.65891h.28648c-.73053-.81648-1.54701-1.56133-2.42079-2.64997-.18622,0,.41541,1.11728-.71621,.17188,0-.10027,.1146-.25782,.41541,0-.19339-.13349-.371-.28705-.53001-.45837l.54433,.28649c-.40108-.48703-.34379-.12892-.68755-.50134,.10026-.08595-.20054-.32946,0-.3581,.20054-.02865,.28648,.34378,.45836,.44405-.35953-.35724-.66751-.76204-.91675-1.20324,0,.10028-.12891,.14325-.44405-.14324-.78783-.74485-.14325-.38675-.55864-.87378-.22919-.12891-.71621-.64458-.85946-.48702-.1504-.105-.2521-.26443-.28648-.44405-.50133-.27216-2.06269-1.63297-1.70458-1.06l.10028,.1146h-.08594c-1.43242-1.05999-3.05106-2.29187-4.59807-3.25159-.91961-.54589-1.87647-1.02461-2.86484-1.43242-.28648-.14324-.61593-.45837-.45836-.4727-.77352-.32946-.84514-.37243-1.91946-.91675,.81649,.21486-.22917-.20054,.83081,.25783-.71907-.4333-1.5026-.74758-2.32051-.93107,.44405,0-.67324-.52999-1.17459-.67324l.65892,.4154c-.54433-.20054-1.00269-.4154-1.43242-.61594l.34379-.1146c-.93825-.41712-1.93235-.69687-2.9508-.8308-.8795-.14023-1.73752-.39535-2.5497-.75918-.61593,0,1.16026,.34378,.60161,.42972-.98835-.22919-1.97672-.75918-2.29186-.81648-1.36079-.38675-1.34648,0-2.7789-.22919,.17188,.10027,.31513,.34378-.7735,.32946-1.08865-.01433-1.20325-.4727-.55864-.48702,.24351,0,.3581,0,.34377,.08595,.32945,0,.77352,0,.37244-.12892l-.12893,.07162c-.50133-.12892-1.90512-.24351-1.57565-.3581-.77352,0-.32947,.11459,.22917,.20054-1.12157-.18536-2.25748-.27646-3.39483-.27216,.21488,0,.41541,.14324,.20054,.14324-1.97673-.08595-.87378,.17189-2.20593,.22919-.7735-.12892,.25784-.31513-1.08863-.20054-.83081-.07162-.18622-.21486,.14324-.28648-1.23188,.12892-2.32052,.10027-3.03673,.1146l.64459-.14325c-.37243,.08595-.70189,.1146-1.01702,.15757l.38675,.12892h-.71621c-.37243,.15757,.34378,.24351-.4154,.48702-.51567,0-1.53269,.24351-1.73323,.08595,1.60431-.15757-.21486-.21486,1.13161-.4154-.31657,.06002-.63743,.09841-.95972,.11459l.14324-.08594c-1.54701,.10027-.64459,.40108-2.20593,.71621,.17189-.15757-.4154-.15757-.65891,0,.63027-.12892,.34378,.14324-.20054,.3581-.54289,.08737-1.07431,.22647-1.58999,.4154l.60161-.08594c-.42686,.20426-.86661,.37658-1.31782,.51567-.08594,0,.58729-.25784,.32945-.21486-.67323,.44405-1.74754,.31513-2.75024,.80216-.51567,0-.12891-.21486-.57297-.12892-.83653,.26858-1.65874,.57941-2.46375,.93107,.41539,0,.44405,0-.31513,.45837l1.90511-.95972-1.16026,.78783c.50995-.28004,1.03564-.52885,1.57566-.74486-.57296,.34378-.51567,.30081-.18621,.30081-.8881,.1146-1.53269,.83081-2.52106,1.07431l-.14324-.40108c-.69472,.22045-1.35936,.52856-1.97673,.91675-.68757,.48903-1.4095,.92477-2.16296,1.3035l.58729-.24351c-.14324,.27216-1.04566,.61594-1.57566,.98837,0-.15757-.40108,0-.68755,0,.08594,.07162-1.20324,.81648-1.18891,1.16026l-.83081,.34378c-1.43242,.85945-1.28918,1.31783-2.47808,2.29187,.25784-.4154-.34379,0,.38675-.80215-.40108,.32945-.77351,.61594-.71621,.68755-.28648,.12892-.95972,1.05999-1.43242,1.26054-.10886,.27803-.29222,.52082-.53,.70188,0,0-.60161,.67324-.12891,.44405-.79213,.52255-1.51407,1.14336-2.14863,1.84782l-1.08864,1.11728c-.26786,.32402-.5701,.61709-.90242,.87378l-2.09133,2.7789v-.20054c-.87378,1.10296-.14324,.95972-1.13161,2.1916-.64459,.55864,.3581-.77351,0-.40108-.50134,0-1.06028,1.61863-1.79081,2.42078l.10027-.24351c-.53,.64459-.78783,1.86215-1.43242,3.0224-.27216,.8881-.78783,2.5497-1.23188,3.75294,0-.42973,.12891-.57297-.12892-.4154-.20054,.54432,.32946,0,0,1.03134-.21485,.31512-.64458,1.04566-.83079,1.08863,.10027-.34378,.25784-.67323,.38675-1.01702-.48702,.4154-.50134,1.31782-.68757,1.86215l-.08594-.1146c-.44405,1.61863-.18621,1.7189-.70188,3.42348l.12891-.15757c0,1.0027-.32945,.75918-.32945,1.76188l-.32946,.22918c0,.64459-.18621,2.27755-.28648,3.40916-.0911-.9527-.0911-1.91199,0-2.86484-.19338,.81719-.29909,1.65273-.31513,2.49241-.00286-.28018,.03094-.55936,.10027-.83081,.07764,1.02991,.07764,2.06412,0,3.09403-.53-.27216-.4727,3.29456-.77351,4.2113,.08624,1.14379,.11502,2.29116,.08594,3.43781,.10027,1.16027,.17189,2.37782,.32946,3.69564,.31513-.98837,.10027,.75918,.51567,.53,.07248,.29221,.12504,.58886,.15757,.88809l.12891,1.86215c0,.45837-.21485-.54433-.30081-.4727,.25784,1.33215,0,.5873,0,1.43242,.1146-.21486,.31513,.40108,.42973,1.17458v-1.11728c.60161,1.79052,.07161,1.67593,.84512,3.43781l-.31513-.54433c.18622,.45837,.4727,1.31783,.77351,2.16296,.23721,.73197,.6115,1.41236,1.10297,2.00539,0,.18621,0,.44405-.20054,0,.47313,1.14163,1.02833,2.24747,1.6616,3.30888,.61852,.90816,1.15997,1.86644,1.61864,2.86484l-.17189-.10027c.28291,.33232,.53228,.69329,.74485,1.07431,0,0-.20054-.08594-.08594,.08595,.40853,.40967,.77379,.86088,1.08893,1.34647l-.38675-.32945c.50278,.80645,1.07287,1.56849,1.70457,2.27754,.60161,.57297,1.20324,1.08864,1.83349,1.79052-.22918,.17189,.80216,1.66161,1.43242,2.32052,.93107,.94539,1.79052,1.69025,2.63566,2.40646,.84512,.71621,1.79052,1.2462,2.76457,1.97673,.32516,.37959,.67467,.73913,1.04566,1.07431,.45837,.38676,1.03134,.74486,1.60431,1.14594,1.17458,.77351,2.40646,1.67593,3.46645,2.27754-.30081-.22918,.17189-.18621,.57297,0,.40108,.18622,1.43242,.55864,1.28918,.77351l-.18622-.10027c.61308,.60448,1.3651,1.0471,2.19161,1.28918l.30081-.28649c1.18891,.76205,2.48811,1.33789,3.8532,1.70458,1.12159,.20054,2.20879,.56724,3.22294,1.08864,.61881,.12462,1.24621,.20626,1.87648,.24351l-.08595,.18621c1.41236,.36384,2.84766,.6274,4.29726,.78783l-.41539,.1146c1.11728,.1146,1.43242-.45837,2.50673-.37243l.28648,.32946c1.93949,.29077,3.90907,.32516,5.8586,.10027,0,0-.08594,.12891-.40108,.14324,.93106,.08594,3.58105-.08594,3.2086-.44405,0,.25782,2.01972-.18622,3.03674-.45838l-.12893,.22919c.62454-.39535,1.3121-.68183,2.03403-.84512,.2865,0,.2865,.10027-.11457,.12891,.98835-.10027,.71621-.34378,1.89078-.48702l-.40108,.21485c.52426-.02005,1.02704-.21199,1.43242-.54432,.63027-.29508,1.32355-.43259,2.01972-.40108,.32086-.30798,.72336-.5171,1.16026-.60161,.08594,0-.10028,.15756-.20054,.20054,1.67593-.34379,2.23457-1.13161,3.39483-1.43242,.03582,.01575,.07449,.02435,.1146,.02435,.03869,0,.07879-.0086,.1146-.02435-1.23188,.52999-2.23457,.94539-2.14863,.88809,.07163,.18622,1.08863-.22918,.38676,.3581,.93251-.67036,1.93662-1.23761,2.99375-1.69025,.05156-.01432,.10601-.01432,.15757,0h-.08594c.21057-.06732,.40824-.16902,.5873-.30081,.275-.10743,.54288-.23061,.80215-.37243,.17188,.07163,1.1316-.52999,1.6043-.78782-.14325-.15757,.50136-.4727-.17188-.28649,.08594,0,0,0-.38676,.24352l-.18622,.12891-1.17457,.65891c.34951-.35094,.77636-.61594,1.2462-.77351,.18622-.25784,.38676-.51566,.50136-.64458,.78781-.10027,2.10566-.68757,2.33483-.68757,1.27485-1.05999,3.22294-2.20592,3.7243-3.23726,.32945-.34379,.48702-.25784,.65892-.32946-.1848,.16903-.35668,.35095-.51567,.54433,.6589-.67324,2.10564-1.81918,2.09132-2.14863,.97406-.68757-.31513,.63026,.84512-.50136l-.10026,.21486c1.08721-.89956,2.05121-1.94092,2.86484-3.09402,.79642-1.28202,1.76045-2.45231,2.86484-3.48078-.18622,.17188-.27216,.25784-.32945,.27215,2.43939-3.2788,4.50494-6.81974,6.15938-10.55692,.29795-.58443,.4727-1.22186,.51567-1.87648l.30082-.14324c0-.40108,0-.80215,.1146-1.20323,.17046-.76492,.44547-1.50175,.81647-2.1916,.17477-.37272,.32803-.75532,.45838-1.14594,.12174-.46797,.18908-.94869,.20054-1.43242l-.20054,.22918c.17188-.73053,.37242-2.36348,.51567-2.20592-.07163-.17949-.07163-.37916,0-.55864h.1146c.04297-.61995,.04297-1.2422,0-1.86215,.21485-1.43242,.42971,.27216,.63025-1.83349,0-.78783-.12891-2.2489-.22917-1.96242-.10028,.28649-.14325,.80215-.25785,.81648v-.70188c-.31513-.14324-.61593-.68757-.98837,1.00269l.08596,1.20324-.18622,.37242v-1.00269c-.12749,.43975-.12749,.90673,0,1.34648-.11604,.13307-.19195,.29751-.21488,.4727l.20056,1.20323c-.14325,.12891-.17191-.54432-.37244,.21486,0,.55864,.38676-.4727,.31513,.42972-.25782,.54433-.34379,.3581-.34379,1.04567-.11457,0-.12891,0-.12891-.34378-.09167,.6261-.13464,1.25809-.12891,1.89079-.1547,.38159-.26071,.78095-.31513,1.1889-.1146,.4154-.24351,.73054-.38676,.65892-.00859,.60648-.09884,1.2091-.27216,1.79052-.0716-1.06-.60161,1.96241-.91675,1.57566,.14325,.84512-.84512,2.53538-1.14592,3.82456,.00573-.11316,.03008-.22345,.0716-.32946-.20913,.43116-.44833,.848-.71621,1.24621,.21488,.20054-.27214,1.24621-.41539,1.87647-.65892,.67324,0-.64458-.40108-.50134,.22919,0-.52999,1.43242-.21485,1.30351-.4727,.52999-.3581,.48702-.71621,.68755,.22917,.28649-.22919,.61594-.38676,1.18891-.70189,.74486-.41541,0-.93109,1.01702-.38674,.37243,.04297-.50134,.04297-.50134Zm-18.97955,17.54713l.50136-.22919-.50136,.22919Zm-2.01969,.8881l.87378-.37243c.10026,0,0,.12891-.14325,.21486,.08594-.14324-.41539,.02864-.73053,.10027v.0573Zm4.88453-.77351c-.3008,.20054-.42971,.22918-.48702,.21486l.53001-.32946c-.01434,.00143-.02865,.00143-.04299,0v.1146Z"/><polyline class="cls-1" points="40.302 104.93512 41.40982 101.88063 43.45065 99.36497 45.45667 96.85836 47.73616 94.59893 50.11563 92.46129 52.45825 90.28225 54.92801 88.23337 57.62612 86.50086 60.26279 84.65606 63.14864 83.23682 66.14857 82.07595 69.18423 81.0481 72.15829 79.85496 75.22924 78.93419 78.26414 77.80833 81.44799 77.29448 84.69624 76.85409 87.95917 76.55173 91.2328 76.66191 94.50655 76.53494 97.74303 77.10911 101.03316 77.1456 104.23523 77.84022 107.42433 78.57065 110.67584 79.05413 113.85737 79.86718 117.01946 80.76844"/><g><path class="cls-9" d="M111.81663,108.51349c-.19666,9.29922-2.71755,8.04276-8.99159,10.79527,10.55768,6.58104-25.2532,14.20327-25.71198-10.79527h-11.12404c.84989,28.63433,28.36094,31.63427,50.4721,25.40578-1.71533-.84664-3.65716-.78138-5.35677-1.94792,2.61617-2.75153,12.50702-9.94194,5.35677-12.17448,5.85298-2.37067,6.59467-5.1516,6.48065-11.28339h-11.12514Z"/><path class="cls-8" d="M23.26784,108.51349c.54286,13.17454-1.04395,16.91674,13.81567,17.12714-21.98356-1.65979-1.62973,22.47494,4.31248,30.52711-1.26485,4.00085-7.34644,.6695-9.66925,3.56143,15.28429-.09568,15.73935,3.20556,27.67371,10.88732,6.90181,4.69601,15.18046,.3132,22.48514,3.23508-2.92188,.48698-6.81771,0-9.2526,2.4349,6.63427,2.79907,14.35329,3.29225,21.83185,3.54929-1.00047-5.82056,3.20562-4.6314,.4409-8.82814-1.28472-2.24321,2.80149-2.37039,3.53715-3.97376-6.31248-1.14126-3.35642-8.64589-3.97836-13.47397-2.7124-2.12346-1.2218-3.02194,.00115-5.11407,.00396-3.68469-.0104-7.40609,.0047-11.06807,.07668-2.9715,4.45949-1.51057,3.97251-3.45848,0-.97396-2.92188-.48698-3.78207-1.96999-.51601-3.15408-.03907-6.55785-.19628-9.39343-1.2509-2.59498-2.65639-3.82414,.00107-6.24149-.00066-3.02131-.00084-8.43865-.00077-7.80087H23.26784Z"/><path class="cls-9" d="M154.53775,108.51349c-.56896,12.45508,1.01492,7.06562-7.39694,11.77037,7.99663,.34807,5.05718,5.66944,3.01257,11.0145,.88326,1.64696,4.77909,.18602,3.80514,2.62092-1.19285,2.11263-6.60918,1.50263-7.48468,4.80527-5.75506,12.17088-11.71732,11.71507-23.68199,12.72598,3.40885,1.46094,7.30469-.97396,10.16083,1.90406,1.09549,5.89245-23.12837,9.90716-15.03062,15.62719-20.33367-1.28412-44.27725,2.07204-60.43795-12.99999-8.83427-6.90121-15.70822-16.27891-19.55988-26.99625,1.59418-3.3449,5.00304-1.88396,7.43793-3.3449-12.69175-1.09271-10.01887-6.44033-10.97022-17.12714h-11.1241c.54286,13.17454-1.04395,16.91674,13.81567,17.12714-21.98356-1.65979-1.62973,22.47494,4.31248,30.52711-1.26485,4.00085-7.34644,.6695-9.66925,3.56143,15.28429-.09568,15.73935,3.20556,27.67371,10.88732,6.90181,4.69601,15.18046,.3132,22.48514,3.23508-2.92188,.48698-6.81771,0-9.2526,2.4349,16.14934,5.95542,36.40225,4.17823,51.7889-3.03927,4.21371-2.3175,9.0835-.85656,12.97933-3.29146,.97396-.48698-2.4349-.97396-1.8586-2.84775,2.35319-3.17456,20.04538-13.72121,10.62422-15.65745,8.81075-.67939,10.50976-9.3473,14.55006-15.60735,1.52025-.94994,3.95515-.94994,3.95515-2.41088,.48698-.97396-1.94792-1.46094-2.53881-2.56356,.82489-2.58617,1.54008-5.19486,2.08366-7.88246,.5436-2.59783-4.2417-1.73935-3.92748-3.1894-.00019-1.46093,3.89564,0,4.89498-2.85637,.32119-2.7801,.48603-5.57671,.47743-8.42701h-11.1241Z"/><path class="cls-9" d="M133.178,108.51349c-.29661,6.47158,.52453,9.23554-6.00334,11.77037,6.40904,.95383,.41888,8.20766-1.45509,11.26246,.48113,2.37296,3.403,1.88598,4.86394,2.85993-2.92188,1.46094-7.30469,0-9.9791,2.78454-6.94227,6.35633-16.05712,10.14592-26.13956,10.16109-21.60339,.1073-38.88535-17.9215-38.71316-38.83839h-11.12404c-.98955,18.02575,9.07777,15.72027,4.03934,19.46265,17.70561,47.15989,86.946,25.22975,60.48945,23.47438,5.98215-2.24827,12.99039,.0388,17.67709-4.91573,6.126-5.11447,8.01442-11.59752,16.89843-11.64156-11.33874-2.61737,3.64473-10.61871-4.38254-14.60973-.48725-2.43454,2.9216-.97361,3.95056-2.94401,1.10177-2.70269,.84519-5.87342,1.00207-8.826h-11.12404Z"/></g><path class="cls-6" d="M20.22447,140.10006c3.74236-.78393,6.67068-3.71228,7.45463-7.45463,.78395,3.74235,3.71227,6.6707,7.45463,7.45463-3.74236,.78393-6.67068,3.71228-7.45463,7.45463-.78395-3.74235-3.71227-6.6707-7.45463-7.45463Z"/><g><path class="cls-7" d="M165.53521,67.65808l-2.17703-2.087-1.74194-2.46712-2.09233-2.1735-1.89924-2.35487-2.10314-2.17174-2.28166-1.98317-2.43642-1.79141-2.09657-2.22153-2.52665-1.67226-2.42832-1.81264-2.82212-1.18247-2.66519-1.40238-2.55873-1.60377-2.56788-1.63061-2.81224-1.12173-2.87128-.95514-2.74603-1.29538-3.00268-.52853-2.88324-.88042-2.89662-.85512-3.00709-.3538-2.86968-1.11026-3.00681-.36894-3.02231-.19364-3.02059-.12398-3.01013-.35295-3.02538,.15873-3.0038,.48665-3.01724-.05992-2.98856,.39217-3.02618,.07184-2.93136,.76538-3.08284-.07116-2.80642,1.28997-2.98133,.49405-2.89711,.83629-2.90024,.83811-2.74744,1.26612-2.75501,1.21342-2.73187,1.25561-2.71268,1.29448-2.87392,1.00938-2.4313,1.82097-2.67402,1.40187-2.53886,1.62966-2.42857,1.79031-2.24545,2.02067-2.24981,1.997-2.64094,1.57054-1.80319,2.47649-2.2365,2.02624-1.98934,2.26323-1.96687,2.28543-1.73929,2.53755-.19745-.1912,.04121,2.88592-.38284,2.91967,.12938,2.91803-.33977,2.92079,.21196,2.91902,.36521,2.92047-.67157,2.92174,.58024,2.92173-.25382,2.91834-.1409,2.92163,.3426,2.92204-.35508,2.92278,.29276,2.92749-.20977,3.0187,2.97407,.02796,2.87806,.23258,2.8813-.47815,2.8817-.23771,2.88243,.44596,2.88708-.25856,2.98456,.53253,1.13812-3.1184,1.95909-2.34673,1.15489-2.85166,2.07879-2.22332,1.58522-2.6138,2.39256-1.90756,2.19548-2.05867,2.0375-2.25494,2.37352-1.88014,2.74069-1.33962,2.52944-1.62258,2.57076-1.57497,2.59011-1.59555,3.04192-.52856,2.80313-1.07159,2.79029-1.18942,2.98845-.46254,2.94088-.66391,3.00731-.2239,3.00217-.1555,3.00244-.25954,3.01555,.00338,2.99656,.33882,3.0262,.12729,2.9007,.90024,2.99987,.4061,2.77409,1.23826,2.99165,.56586,2.70033,1.36508,2.86272,1.0081,2.60635,1.53778,2.58347,1.56778,2.31946,1.94456,2.4194,1.79035,2.40268,1.8342,2.2378,2.0368,2.09537,2.18805,2.00213,2.27879,1.65282,2.5475,1.69657,2.50708,1.21302,2.78844,1.43828,2.89611,3.30187,.01579,3.23511-.4287,3.23556-.13869,3.23638-.06011,3.24159,.131,3.20649,.15816,.33779-2.87724-.03583-2.91967-.31885-2.91803-.19811-2.92079,.3948-2.91902-.24434-2.92047-.07286-2.92174-.16905-2.92173,.03994-2.91834,.30142-2.92163-.21045-2.92204,.52301-2.92278,.04653-2.92749-.71013-2.90922,.19136-.16345Zm-33.11598-22.22019l.46889,3.1518-.2132,3.19683,.13482,3.20044-.24001,3.20089-.07652,3.2017,.07254,3.20686,.16486,3.31794-3.07572-.39765-2.95175,.13697-2.95508-.14445-2.95549,.48947-2.95624,.11173-2.96101-.2236-2.77304-.27292-.02901-2.74971-.17883-2.94054,.28846-2.94181-.41661-2.94181,.05777-2.93839,.13192-2.94171-.28021-2.94212,.5895-2.94286-.06406-2.94761-.14935-2.89621,2.91307,.64943,2.97259,.98843,3.05092,.70274,3.10667,.60287,2.85587,1.32336,2.94121,1.10278,2.52704,1.63718Zm-53.25747-7.10618l.46408,2.88561-.2132,2.95181,.13482,2.95309-.24001,2.95308-.07652,2.94965,.07254,2.95298,.20823,2.95339-.45049,2.95414,.13697,2.9589-.05099,2.7439-2.97088,.41043-3.16779,.11173-3.17137-.2236-3.17181-.35037-3.17261,.10787-3.17772,.17883-2.98859-.21058-.33716-2.96089,.05777-3.14793,.13192-3.15149-.28021-3.15192,.5895-3.15272-.06406-3.1578-.14425-3.12297,2.52654-1.26119,2.77752-.96671,2.65688-1.25611,2.6311-1.38518,2.87504-.68162,2.79908-.92513,2.92642-.42044,2.68923-.53875Zm-49.89142,29.28315l1.63592-2.21439,2.13809-2.01081,1.95745-2.17873,2.28771-1.83649,2.23714-1.87573,2.20522-1.91305,2.19021-1.94711,2.63525-1.3336,2.34893-1.72939,2.55392-1.40952,2.5688-1.76883,.12272,2.96919-.2236,2.90122-.35037,2.90449,.10787,2.90489,.17883,2.90563-.28846,2.91031,.37029,3.01787-3.17944-.0173-3.07773-.13192-3.07415,.28021-3.07762-.5895-3.07805,.06406-3.07883,.14006-3.08266,.10997-3.02744-.15153Zm54.00091,.04654l-.4147-2.87237,.2132-3.01573-.13482-3.01704,.24001-3.01703,.07652-3.01353-.07254-3.01693-.20823-3.01735,.45049-3.01811-.13697-3.02298,.13007-2.93215,2.80987-.67909,3.12254-.38729,3.1497,.06392,3.13669,.30588,3.1292-.03872,3.13805,.00439,3.08905,.58434,3.27889,.10141-.05051,3.05091-.13192,3.00659,.28021,3.00789-.5895,3.00789,.06406,3.00439,.14006,3.00778,.10995,3.0082-.2182,3.00896,.19518,3.01381,.31342,3.2765-3.37638-.11745-3.12286,.13537-3.11924-.28524-3.12275,.31672-3.12319-.63211-3.12398,.65824-3.13092-.25599-2.99045-.22409Zm52.76769-.00052l-.41417-2.81227,.2132-2.95121-.13482-2.95454,.24001-2.95495,.07652-2.9557-.07254-2.96047-.19923-3.01404,2.56266,1.76666,2.56688,1.43668,2.35713,1.76031,2.67061,1.33341,2.3976,1.73102,2.11775,2.06961,1.95173,2.23017,2.1885,1.96497,2.17291,1.99347,1.75531,2.37954,2.14278,2.22108-3.12828-.05112-3.08439-.13192-3.08081,.28021-3.08429-.5895-3.08472,.06406-3.0855,.14006-3.0896,.10996-2.95522-.1055Z"/><polyline class="cls-2" points="58.24101 67.42457 58.20965 63.57665 58.3769 59.72982 58.70164 55.88247 58.32503 52.03414 58.61672 48.1796 58.67924 44.32507"/><polyline class="cls-2" points="136.52096 68.93929 136.80583 65.47394 136.25616 62.00468 136.39063 58.53493 136.43758 55.06431 136.42513 51.58809 136.72384 48.11187"/><polyline class="cls-2" points="83.34844 67.42457 83.76401 63.261 83.55159 59.09735 83.64497 54.9349 83.69995 50.77186 83.58462 46.60521 83.53528 42.4357 83.66471 38.26618"/><polyline class="cls-2" points="113.08335 67.42457 113.60017 63.261 113.74154 59.09735 113.77637 54.9349 112.99575 50.77186 112.98625 46.60521 113.78159 42.4357 113.08888 38.26618"/><polyline class="cls-3" points="40.42881 107.54906 41.39487 104.37088 43.3077 101.67286 45.19554 98.98876 47.37282 96.53571 49.65648 94.197 51.89886 91.81894 54.27424 89.56252 56.90231 87.60497 59.46715 85.54729 62.31471 83.90951 65.29842 82.54388 68.33665 81.33739 71.32105 80.00606 74.42773 78.98653 77.51473 77.81508 80.76725 77.31098 84.02597 76.90673 87.29647 76.62646 90.57949 76.76195 93.86305 76.67802 97.09398 77.31259 100.38558 77.43811 103.57137 78.24146 106.73161 79.10307 109.9594 79.74477 113.09643 80.73116 116.2031 81.82198"/></g><path class="cls-4" d="M138.37518,157.86435c5.42967-1.13738,9.67827-5.38603,10.81567-10.81567,1.1374,5.42964,5.386,9.67829,10.81567,10.81567-5.42967,1.13738-9.67827,5.38603-10.81567,10.81567-1.1374-5.42964-5.386-9.67829-10.81567-10.81567Z"/><g><path class="cls-10" d="M2.86226,111.36605c.51025-.2019,1.22815-.77881,1.95258-1.13196-.30225,.11035-.61548,.21411-.93549,.40112-.31537,.20422-.6488,.44421-1.01709,.73083Z"/><polygon class="cls-10" points="4.83004 110.22836 4.83993 110.2203 4.81484 110.23409 4.83004 110.22836"/><path class="cls-10" d="M188.93923,107.93698c-.25171-.17859-.53851-.38196-.82947-.5885,.27795,.19727,.55652,.3949,.82947,.5885Z"/><path class="cls-10" d="M46.85659,112.61556l.26532-.14551c1.34442,.54297,1.56989,.59778,1.72107,.73242,.16071,.10913,.30792,.22107,1.64044,.45483,.27155-.04346,.67926-.01587,1.1485,.02771l.73364,.04944c.16583,.01367,.33441,.02747,.50452,.0415,.19128,.00635,.42004,.06384,.62549,.00964,.54474-.07507,1.08679-.14966,1.54669-.21289,.39081-.05701,.71161-.12268,.89526-.2052-.01276,.0293,1.07892-.16882,1.03015-.05432,.30255-.23376,1.10522-.26965,1.77576-.46008,.23529-.10168-.19226-.01355-.38751-.02686l1.5238-.40698c.60956-.08203,.78149-.01355,.13654,.15601,.99799-.20007,2.93445-.69983,5.0813-1.06689,2.15356-.38342,4.57251-.44775,7.21558-.08655,1.31165,.17712,2.64667,.41919,3.94244,.71533,.3241,.07397,.6449,.14722,.96161,.21936l.43164,.09729c.16876,.03223,.32965,.08618,.49707,.09973,.28088,.00085,.55969,.00183,.8363,.00269,.74152,.01221,1.46796-.00024,2.17584-.05164,2.83008-.1322,5.20038-.87158,6.29407-1.25891-.59796,.0813-2.08282,.57837-2.70618,.4873,1.26074-.40491,1.89056-.45117,2.37854-.73792,.28772,.07617,.94257-.12634,1.60278-.34631,.64624-.21533,1.28668-.41785,1.68591-.37781l.20697-.25012c.16058-.00842,.32538-.02759,.47943-.02759,.9469-.30432,1.46185-.37671,1.78485-.43237,.31726-.05029,.41138-.07446,.49963-.0697,.08569,.00183,.15997,.0033,.43213,.00879,.13922,.00623,.31647-.0144,.59204,.00464,.13678,.00659,.29346,.01404,.47351,.02258,.18774,.00842,.11462,.00415,.14685,.01306,.54547,.12671,1.02032,.23706,1.44958,.33667,.47522,.0968,.89813,.18286,1.28619,.26196,.76758,.16846,1.39923,.3125,2.05493,.55212-.198-.05981-.69733-.32056-.06091-.18201,.06329,.17285,1.68604,.39917,1.94037,.64636,.60999,.16272,2.58368,.84436,1.98132,.41602,.29401,.20935,2.11652,.85669,.99829,.58655,.58844,.2074,1.26581,.43909,1.75421,.53894l-.84375-.31946c1.0788,.33167,2.14594,.63208,3.20947,.74939,.52179,.04321,1.05115,.04309,1.52435,.00818,.44342-.06421,.92456-.13147,1.33008-.25952-.30695,.03687-.69568,.03906-1.0365,.05371,1.72852-.20508,2.73804-.57642,3.33148-.49634-.46582,.14001-.87775,.29089-1.3902,.42065,1.17993-.28137,2.02185-.53369,2.80609-.78186,.80035-.24878,1.50531-.49707,2.34589-.80457l-.60919,.17505c.52972-.21436,1.6236-.58948,2.99817-1.04578,.68945-.22192,1.44781-.46606,2.24023-.72119,.19849-.06311,.39899-.12695,.60114-.19128,.16034-.05176,.12823-.05115,.19525-.07434l.06891-.00623c.03241-.00146,.01324-.00427,.1319-.00342,.17603,.00354,.36121-.01086,.52795,.01196,1.39191,.06897,2.58026,.4425,3.7749,1.00195,1.18719,.56116,2.40137,1.12646,2.98309,1.28577-.31055-.20129-.63397-.39844-.91162-.60596,.60114,.25,1.25787,.48401,1.92664,.67664-.22327-.08276-1.1463,.13977-1.3078-.0061,.49719,.23071,1.33252,.55164,2.41205,.83911,1.09119,.27258,2.40704,.43701,3.83453,.453,1.40338,.02209,3.12701-.16296,4.80048-.77502,.81909-.29626,1.61334-.68127,2.26593-1.02661,.66327-.34485,1.24451-.64429,1.79852-.87805,2.09674-.89258,4.87146-.93164,6.76221-.56702,1.88129,.39087,3.46558,1.2959,4.35571,1.69043,1.39929,.69873,.15466,.35291,.12024,.36816,.89398,.35291,1.13684,.38037,1.31525,.41199,.18616,.02576,.30688,.0719,1.16113,.32739,.45685,.16663-.13129,.09705-.40302,.03906,.74719,.2262,1.46521,.41846,1.53906,.35852-.95239-.27588-.49945-.37097-.85645-.61157,.72382,.19971,1.46838,.35583,2.21387,.44409l-.11517,.1156c.25256,.0415,.58124-.00964,1.10724-.07251,.64313-.04578,1.40814-.10022,2.55768-.18213,.81927-.23035,1.65466-.46533,2.49921-.70276,.77063-.21582,1.54315-.42529,2.31537-.62109,1.54401-.40137,3.08087-.72302,4.5481-.91992-.03491,.08386-.63983,.20654-1.25024,.37622,.3949-.07703,.98926-.19177,1.35547-.17993-.72382-.03577,1.21143-.26465,.65363-.24377,2.12354-.59631,4.82642-.22986,6.54565,.01782,.05524-.05798,.375-.31323,.88452-.65637,.25415-.1698,.55878-.36707,.89435-.55957,.328-.17371,.69189-.35205,1.07269-.52295,.76984-.36548,1.5719-.60632,2.22284-.78955,.64886-.18396,1.13452-.31409,1.17352-.37671,.63879,.4668,1.26483,.94385,1.4389,1.11047-.12408-.16101-1.30457-1.20178-2.08386-1.52856l-.21497,.08594c-.83502-.4436-.92291-.5105-1.00635-.57898-.08173-.07117-.15424-.151-1.00702-.50793-.01843-.08801,.36932,.02551,.93646,.24268,.57159,.20483,1.26691,.63928,1.93317,1.00488-.58832-.34851-1.1626-.73145-1.6803-.99841-.52795-.2428-.97729-.41895-1.26202-.45081-1.17474-.49695,.20648-.14575-1.24188-.67725-1.06653-.29834-2.47601-.40125-3.65668-.60095l.02374-.02368c-1.45044-.21619-2.54462-.13782-3.57764-.03589-1.0304,.11523-2.00781,.26416-3.23199,.37439l.25586-.08643c-.89032,.01965-2.52173,.45862-4.02252,.70886,.43182-.0658,.82086-.04529-.06366,.17566-1.70691,.31799-2.80304,.72192-4.01514,.95056l-1.0863,.46826-.39655,.11426c-.01282,.0061-.01746,.00525-.06787,.00427-.18433,.0061-.37964,.01245-.58527,.01929-.2132,.0033-.42358-.02002-.65082-.02612-.90906-.0531-1.84418-.2157-2.97711-.64331-1.12817-.396-2.62549-1.24512-4.63568-1.89587-1.99628-.65662-4.27527-.91626-6.32678-.78931-2.04193,.08984-4.37903,.58374-6.25244,1.49805-.92383,.43225-1.67419,.85986-2.2771,1.15027-.60907,.29211-1.08844,.49207-1.59204,.60669-.96594,.2616-2.11627,.28027-3.0484,.20947-.91888-.07788-1.62109-.22144-2.12439-.3916l.16577,.02502c-.78162-.21936-1.61243-.5968-2.81079-1.23401-1.19507-.62756-2.88239-1.49341-4.81165-1.86987-.47736-.10669-.95764-.18384-1.43939-.22778-.23981-.02271-.48853-.06555-.72455-.06873l-.82935-.02954c-.37378,.00208-.75427-.0791-1.1095,.07703l-.86804,.24988c-.3924,.11353-.7876,.22778-1.18506,.34277-1.58099,.46985-3.19836,.95056-4.81799,1.43188-1.59241,.47583-3.23859,.99695-4.51935,1.25598-.33337,.07544-.56287,.078-.83588,.12268-.22607-.01807-.43909,.02686-.6825-.02856-.44519-.03198-1.1062-.22571-1.78473-.4259-1.39429-.427-2.8512-.91626-4.19623-1.30786-1.34473-.41382-2.60284-.73877-3.7179-1.04456-.66827-.25806-1.48059-.50415-2.30347-.74243l-.72046-.2052c-.17334-.0365-.36462-.12146-.55188-.13086l-.54749-.01892c-.55408-.01379-.93805-.04993-1.38843-.03894,.94171,.06006,.6225,.14404-.11371,.15979-2.60718,.12329-2.70337,.31519-2.78754,.33118-.06281,.07727-.25702,.02551-2.68311,.79993-.61993,.229-1.45605,.53772-2.4549,.90662-.92181,.32861-1.9245,.6333-3.06006,.83191-1.13452,.19739-2.40186,.31311-3.77515,.28088l-.29254-.00085-.24536-.05676c-.38544-.08765-.77338-.17578-1.1629-.2644-.77148-.19043-1.58807-.31372-2.38318-.47278-3.19421-.58594-6.66345-.75513-9.50269-.37378-2.84332,.35986-4.90637,.91895-6.01654,1.13025-1.16901,.3855-2.47644,.70264-3.77966,.95544-.65143,.12842-1.30206,.2511-1.93402,.35327l-.46906,.08313c-.19751,.03503-.17816,.03589-.23315,.04907-.03149,.00879-.08453,.00464-.14038,.0072l-.38898-.00684,.20929-.03479c-.56049-.00818-1.70837-.11829-3.02295-.61292-.66602-.23999-1.37848-.61353-2.28741-1.12146-.89435-.4989-2.06702-1.15027-3.41418-1.5708-1.34155-.43481-2.76031-.60254-4.01135-.58972-1.26312-.01184-2.47675,.12866-3.60529,.39636-1.13202,.24438-2.10132,.67712-2.87036,1.03369-.75067,.38306-1.289,.71228-1.63721,.93372l.40369-.20471c-1.20886,.80505-1.61621,1.05383-2.02112,1.2218-.39557,.16797-.72882,.27344-1.40363,.5,.12604,.0697-.15137,.29895-.5719,.45654-.20587,.08655-.44678,.16406-.68719,.19873-.23138,.05469-.45648,.08545-.62701,.08264l.02319-.05212c-.16962,.00659-.14484,.01721-.21802,.02869-.05945,.02148-.12122-.00696-.22559-.0199-.41388-.10815-.93451-.21228-1.45502-.37061-1.05133-.30237-2.20752-.69629-3.17914-1.08655l.12616-.08704c-1.63202-.54199-4.77667-1.98608-6.13165-2.40491-1.49335-.52148-3.52618-1.19727-5.93427-1.26208-2.40326-.09473-4.9845,.62341-6.95917,1.74084-.86566,.39343-1.82922,.73889-2.64423,1.22009l-.3114,.27991s-.2439,1.5824,.25769,2.74878c.48938,1.2002,1.63617,1.97144,3.72382,1.04578l.01117,.14319,.73273-.45459c.2298-.11963,.42194-.23364,.58197-.33545l.39764-.19885c.20471-.10364,.29181-.14832,.28729-.07568l-.62256,.26074-.60889,.35962c.9057-.50623,.31665-.06702,.01978,.19714,.37292-.21118,.7334-.42761,1.0498-.49451,.15417-.12109-.15161,.00781-.30463,.04187,.46289-.21521,1.08337-.73193,1.70624-.78894,.46686-.12866,.49274-.08521,.53894-.04358,.04663,.05042,.10791,.04089,.64539-.00696,1.40625-.21423,2.84424-.0459,4.40643,.40918,1.55591,.44592,3.20947,1.18909,4.9563,1.96045,1.75,.77393,3.59631,1.59778,5.59106,2.29419l1.56036,.49243c.41461,.09912,.85742,.34631,1.34436,.27124l1.19226-.02051c1.29663-.08325,2.67938-.37622,3.91785-.89661,.23999-.04749-.01819,.07019-.30023,.20496,1.53979-.61719,2.66718-1.40015,3.54993-1.94946,.88776-.56677,1.55994-.94946,2.25598-1.2373,.40912-.09167,.53925-.04138,.67218-.01453-.06421-.00879,.37567-.16895,1.16284-.297,.8183-.10205,2.00568-.13586,2.94965,.07251,.47772,.12781,.94128,.26892,1.44147,.51196,.50934,.24011,1.0376,.53247,1.59039,.83398,.52631,.2876,1.05505,.56567,1.43829,.74353,.38953,.18433,.62189,.29431,.65179,.30835Z"/></g></g></g></svg>